<?xml version="1.0" standalone="no"?>
<!DOCTYPE svg PUBLIC "-//W3C//DTD SVG 20010904//EN"
 "http://www.w3.org/TR/2001/REC-SVG-20010904/DTD/svg10.dtd">
<svg version="1.0" xmlns="http://www.w3.org/2000/svg"
 width="840.000000pt" height="592.000000pt" viewBox="0 0 840.000000 592.000000"
 preserveAspectRatio="xMidYMid meet">

<g transform="translate(0.000000,592.000000) scale(0.100000,-0.100000)"
fill="#000000" stroke="none">
<path d="M1730 4960 l0 -558 68 -27 c37 -15 222 -90 412 -167 631 -256 971
-394 1345 -546 204 -83 672 -273 1040 -422 369 -150 675 -275 680 -280 11 -8
196 -86 455 -190 85 -35 157 -66 160 -69 3 -3 14 -8 25 -9 11 -2 23 -9 27 -15
4 -7 8 -8 8 -4 0 4 10 2 23 -5 12 -6 28 -13 36 -14 8 -2 17 -8 21 -14 4 -6 11
-10 16 -9 21 4 35 -2 29 -11 -3 -5 3 -10 13 -10 11 0 25 -7 32 -15 7 -8 17
-12 24 -8 6 3 8 3 4 -1 -4 -5 1 -22 11 -39 9 -18 23 -51 31 -75 7 -23 19 -47
26 -53 6 -5 10 -18 7 -28 -3 -10 0 -22 6 -25 6 -4 11 -14 11 -22 0 -14 43 -64
55 -64 4 0 -3 13 -14 29 -12 16 -21 36 -21 44 0 9 -4 19 -10 22 -5 3 -10 13
-10 21 0 8 -8 33 -19 57 -45 102 -49 117 -31 117 6 0 10 -7 10 -15 0 -8 6 -15
14 -15 9 0 12 -8 8 -26 -3 -20 0 -26 17 -31 23 -6 28 -19 8 -26 -8 -4 -9 -8
-1 -14 6 -4 17 -29 25 -55 7 -27 17 -48 21 -48 4 0 8 -9 8 -20 0 -18 5 -20 45
-18 25 2 45 5 45 8 0 3 10 6 22 7 11 1 25 8 29 15 5 7 9 10 9 6 0 -10 83 23
92 36 4 6 8 8 8 3 0 -4 16 0 36 8 20 8 45 15 55 15 18 0 19 19 19 559 l0 559
-62 25 c-79 32 -478 194 -788 320 -868 352 -1543 626 -2345 952 -506 205
-1017 412 -1135 460 -118 48 -302 123 -407 166 l-193 78 0 -559z"/>
</g>
</svg>
